<svg width="50" height="43" viewBox="0 0 50 43" fill="none" xmlns="http://www.w3.org/2000/svg">
<path d="M39.6328 42.7501C37.6071 42.7501 35.6269 42.1494 33.9426 41.024C32.2583 39.8986 30.9455 38.299 30.1703 36.4275C29.3951 34.5559 29.1923 32.4966 29.5875 30.5098C29.9827 28.523 30.9581 26.698 32.3905 25.2656C33.8229 23.8332 35.6479 22.8578 37.6347 22.4626C39.6215 22.0674 41.6809 22.2702 43.5524 23.0454C45.4239 23.8206 47.0235 25.1334 48.1489 26.8177C49.2743 28.502 49.875 30.4822 49.875 32.5079C49.8721 35.2234 48.7921 37.8269 46.8719 39.747C44.9518 41.6672 42.3483 42.7472 39.6328 42.7501ZM39.6328 25.8283C38.3117 25.8283 37.0203 26.22 35.9218 26.954C34.8233 27.688 33.9672 28.7312 33.4616 29.9517C32.956 31.1723 32.8238 32.5154 33.0815 33.8111C33.3392 35.1068 33.9754 36.297 34.9096 37.2312C35.8438 38.1654 37.034 38.8016 38.3297 39.0593C39.6254 39.317 40.9685 39.1847 42.1891 38.6792C43.4096 38.1736 44.4528 37.3175 45.1868 36.219C45.9208 35.1205 46.3125 33.8291 46.3125 32.5079C46.3105 30.737 45.6061 29.0392 44.3538 27.787C43.1016 26.5347 41.4038 25.8303 39.6328 25.8283ZM10.2422 42.7501C8.21649 42.7501 6.23626 42.1494 4.55194 41.024C2.86762 39.8986 1.55485 38.299 0.779645 36.4275C0.00443778 34.5559 -0.198392 32.4966 0.196806 30.5098C0.592003 28.523 1.56748 26.698 2.99987 25.2656C4.43227 23.8332 6.25726 22.8578 8.24405 22.4626C10.2308 22.0674 12.2902 22.2702 14.1617 23.0454C16.0332 23.8206 17.6328 25.1334 18.7583 26.8177C19.8837 28.502 20.4844 30.4822 20.4844 32.5079C20.4814 35.2234 19.4014 37.8269 17.4813 39.747C15.5611 41.6672 12.9577 42.7472 10.2422 42.7501ZM10.2422 25.8283C8.92108 25.8283 7.62963 26.22 6.53116 26.954C5.43269 27.688 4.57654 28.7312 4.07097 29.9517C3.5654 31.1723 3.43312 32.5154 3.69086 33.8111C3.94859 35.1068 4.58477 36.297 5.51894 37.2312C6.45312 38.1654 7.64332 38.8016 8.93906 39.0593C10.2348 39.317 11.5779 39.1847 12.7984 38.6792C14.019 38.1736 15.0622 37.3175 15.7962 36.219C16.5301 35.1205 16.9219 33.8291 16.9219 32.5079C16.9198 30.737 16.2154 29.0392 14.9632 27.787C13.7109 26.5347 12.0131 25.8303 10.2422 25.8283ZM32.0625 7.12512C32.5318 7.12675 32.9967 7.03534 33.4303 6.85619C33.864 6.67703 34.2579 6.41369 34.5892 6.08137C34.9205 5.74906 35.1826 5.35437 35.3604 4.92013C35.5382 4.48588 35.6281 4.0207 35.625 3.55148C35.6302 3.08461 35.5423 2.62138 35.3663 2.18889C35.1904 1.7564 34.93 1.36333 34.6004 1.03266C34.2708 0.701993 33.8785 0.440363 33.4466 0.263071C33.0146 0.085779 32.5517 -0.0036166 32.0848 0.00011201C31.617 -0.00134998 31.1534 0.0893488 30.7206 0.267031C30.2879 0.444712 29.8943 0.705898 29.5625 1.03567C29.2306 1.36545 28.967 1.75736 28.7866 2.18902C28.6062 2.62068 28.5126 3.08365 28.5112 3.55148C28.5097 4.01932 28.6004 4.48286 28.7781 4.91564C28.9558 5.34842 29.2169 5.74197 29.5467 6.07381C29.8765 6.40566 30.2684 6.66929 30.7001 6.84968C31.1317 7.03006 31.5947 7.12365 32.0625 7.12512Z" fill="black"/>
<path d="M37.3562 14.2501H32.4844C32.4045 14.2501 32.3261 14.2286 32.2573 14.1879C32.1886 14.1472 32.132 14.0887 32.0937 14.0186L28.5601 7.54259C28.3112 7.06133 27.9524 6.64546 27.5128 6.32863C27.0732 6.01181 26.5652 5.80293 26.0299 5.71892C25.4947 5.63491 24.9471 5.67812 24.4316 5.84505C23.9161 6.01198 23.4472 6.29795 23.0627 6.6798L15.2854 14.5173C14.632 15.1842 14.2611 16.0775 14.25 17.0111C14.25 18.9482 15.6527 19.6384 16.3096 20.028C19.4824 21.8561 21.7168 23.1931 22.9425 23.9357C23.0077 23.9753 23.0615 24.0311 23.099 24.0976C23.1364 24.164 23.1561 24.239 23.1563 24.3153V32.0103C23.1563 32.9688 23.8932 33.7916 24.8518 33.8394C25.0924 33.851 25.3329 33.8137 25.5588 33.7296C25.7846 33.6456 25.991 33.5166 26.1655 33.3505C26.34 33.1845 26.479 32.9847 26.5741 32.7633C26.6692 32.5419 26.7184 32.3036 26.7188 32.0626V22.4884C26.7189 22.2056 26.6518 21.9269 26.5228 21.6752C26.3939 21.4236 26.2069 21.2062 25.9773 21.0411L21.8582 18.0787C21.8065 18.0417 21.7633 17.9941 21.7315 17.939C21.6998 17.8839 21.6802 17.8227 21.6741 17.7594C21.6679 17.6961 21.6754 17.6322 21.6961 17.5721C21.7167 17.512 21.7499 17.4569 21.7936 17.4107L26.4694 12.4243C26.5173 12.373 26.5767 12.3338 26.6427 12.3098C26.7087 12.2858 26.7794 12.2778 26.8491 12.2864C26.9188 12.295 26.9855 12.3199 27.0437 12.3592C27.1019 12.3984 27.15 12.4509 27.1841 12.5123L29.6133 16.8964C29.7677 17.1743 29.9936 17.4058 30.2677 17.5669C30.5418 17.7281 30.854 17.8129 31.1719 17.8126H37.4063C37.6476 17.8129 37.8864 17.7641 38.1083 17.6693C38.3302 17.5745 38.5305 17.4356 38.6971 17.261C38.8637 17.0864 38.993 16.8798 39.0773 16.6537C39.1616 16.4275 39.1991 16.1867 39.1875 15.9456C39.1408 14.9871 38.3147 14.2501 37.3562 14.2501Z" fill="black"/>
</svg>
