<svg width="22" height="20" viewBox="0 0 22 20" fill="none" xmlns="http://www.w3.org/2000/svg">
<path d="M1 10H21M1 9C1 5.229 1 3.343 2.172 2.172C3.343 1 5.229 1 9 1H13C16.771 1 18.657 1 19.828 2.172C21 3.343 21 5.229 21 9V11C21 14.771 21 16.657 19.828 17.828C18.657 19 16.771 19 13 19H9C5.229 19 3.343 19 2.172 17.828C1 16.657 1 14.771 1 11V9Z" stroke="black" stroke-width="1.5"/>
<path d="M12.5 14.5H17M12.5 5.5H17M5 15.5V13.5M5 6.5V4.5M8 15.5V13.5M8 6.5V4.5" stroke="black" stroke-width="1.5" stroke-linecap="round"/>
</svg>
