<svg width="20" height="20" viewBox="0 0 20 20" fill="none" xmlns="http://www.w3.org/2000/svg">
<path d="M9.942 19.884C7.97566 19.884 6.05348 19.3009 4.41853 18.2085C2.78357 17.116 1.50928 15.5633 0.756794 13.7466C0.00430775 11.93 -0.192577 9.93098 0.191037 8.00242C0.574651 6.07386 1.52154 4.30236 2.91195 2.91195C4.30236 1.52154 6.07386 0.574651 8.00242 0.191037C9.93098 -0.192577 11.93 0.00430775 13.7466 0.756794C15.5633 1.50928 17.116 2.78357 18.2085 4.41853C19.3009 6.05348 19.884 7.97566 19.884 9.942C19.8811 12.5779 18.8327 15.105 16.9688 16.9688C15.105 18.8327 12.5779 19.8811 9.942 19.884ZM9.942 1C8.17344 1 6.4446 1.52444 4.9741 2.507C3.50359 3.48956 2.35747 4.88611 1.68067 6.52005C1.00387 8.15399 0.826793 9.95192 1.17182 11.6865C1.51685 13.4211 2.36849 15.0144 3.61906 16.265C4.86962 17.5155 6.46293 18.3672 8.19751 18.7122C9.93209 19.0572 11.73 18.8801 13.364 18.2033C14.9979 17.5265 16.3944 16.3804 17.377 14.9099C18.3596 13.4394 18.884 11.7106 18.884 9.942C18.8814 7.57125 17.9384 5.29836 16.262 3.62198C14.5857 1.9456 12.3128 1.00265 9.942 1Z" fill="black"/>
<path d="M14.635 11.686C14.2652 12.6297 13.6196 13.44 12.7823 14.0111C11.9451 14.5823 10.9551 14.8878 9.94154 14.8878C8.92801 14.8878 7.93802 14.5823 7.10075 14.0111C6.26348 13.44 5.61783 12.6297 5.24804 11.686C4.99904 11.096 4.13704 11.605 4.38504 12.191C4.84425 13.2859 5.61667 14.2207 6.60531 14.8781C7.59395 15.5355 8.75477 15.8863 9.94204 15.8863C11.1293 15.8863 12.2901 15.5355 13.2788 14.8781C14.2674 14.2207 15.0398 13.2859 15.499 12.191C15.746 11.605 14.885 11.091 14.635 11.686Z" fill="black"/>
<path d="M6.94202 8.203C7.63237 8.203 8.19202 7.64336 8.19202 6.953C8.19202 6.26265 7.63237 5.703 6.94202 5.703C6.25166 5.703 5.69202 6.26265 5.69202 6.953C5.69202 7.64336 6.25166 8.203 6.94202 8.203Z" fill="black"/>
<path d="M12.942 8.203C13.6324 8.203 14.192 7.64336 14.192 6.953C14.192 6.26265 13.6324 5.703 12.942 5.703C12.2517 5.703 11.692 6.26265 11.692 6.953C11.692 7.64336 12.2517 8.203 12.942 8.203Z" fill="black"/>
</svg>
