<svg width="734" height="225" viewBox="0 0 734 225" fill="none" xmlns="http://www.w3.org/2000/svg">
<path d="M402.277 114.29C413.614 117.767 417.005 126.5 418.281 136.602C419.892 149.363 419.794 149.396 406.839 149.393C389.844 149.39 372.848 149.374 355.853 149.4C348.57 149.411 347.262 151.126 349.024 158.125C351.402 167.564 355.377 170.957 364.931 171.637C374.715 172.333 384.474 173.253 394.307 171.82C398.941 171.145 402.969 169.931 406.141 166.249C408.706 163.271 413.736 162.656 415.95 164.934C418.929 168.001 416.798 170.831 415.053 173.439C412.57 177.15 408.535 178.648 404.505 179.636C387.878 183.713 371.087 183.494 354.496 179.855C346.118 178.017 341.382 171.291 339.463 163.271C336.758 151.965 337.047 140.504 339.913 129.195C342.812 117.755 351.772 113.644 362.048 113.051C375.297 112.286 388.679 111.519 402.277 114.29ZM360.227 123.534C354.593 124.733 350.529 127.63 349 133.517C347.795 138.155 348.77 139.834 353.489 139.963C359.473 140.126 365.464 140.027 371.452 140.03C381.599 140.034 391.747 140.122 401.892 139.992C407.18 139.925 408.248 138.101 406.921 133.034C405.2 126.461 400.072 124.315 394.309 123.354C383.246 121.511 372.133 121.877 360.227 123.534Z" fill="#202020"/>
<path d="M251.137 85.6143C275.753 85.611 299.885 85.6405 324.017 85.5746C327.806 85.5642 330.518 86.1273 330.511 90.8894C330.506 94.7126 329.103 96.3801 325.248 96.3347C316.928 96.2366 308.606 96.3067 300.284 96.3168C293.237 96.3253 292.907 96.6118 292.904 103.551C292.897 125.187 292.928 146.823 292.935 168.459C292.936 170.621 292.864 172.784 292.832 174.947C292.766 179.502 290.577 181.468 285.922 181.307C281.328 181.147 279.854 178.784 279.861 174.616C279.901 152.813 279.932 131.011 279.864 109.208C279.82 94.8445 281.479 96.3895 267.135 96.3165C260.977 96.2851 254.818 96.2274 248.662 96.3322C244.844 96.3972 242 95.5275 242.014 90.9784C242.028 86.4737 244.811 85.3923 248.657 85.6175C249.32 85.6563 249.988 85.6183 251.137 85.6143Z" fill="#202020"/>
<path d="M588.642 116.083C597.924 120.269 600.957 127.867 601.089 136.924C601.273 149.58 601.099 162.241 601.16 174.9C601.179 178.863 599.878 181.305 595.446 181.257C590.938 181.209 589.864 178.477 589.871 174.677C589.891 163.851 589.928 153.024 589.876 142.197C589.813 128.839 586.063 124.84 572.836 123.07C564.007 121.888 555.251 122.136 546.477 123.311C535.735 124.75 531.409 129.644 531.336 140.631C531.261 151.957 531.301 163.284 531.32 174.61C531.325 177.426 530.989 180.004 527.791 181.011C523.639 182.319 520.059 180.284 520.047 175.881C520.01 160.91 518.852 145.891 520.88 130.982C522.005 122.71 527.35 116.953 535.089 115.198C552.767 111.19 570.631 110.739 588.642 116.083Z" fill="#202020"/>
<path d="M87.9947 96.6825C84.8487 98.629 85.388 101.466 85.3853 104.075C85.3611 127.391 85.3778 150.708 85.368 174.024C85.3653 180.331 84.5574 181.266 79.3018 181.25C74.3207 181.234 72.8616 179.735 72.8504 174.03C72.8047 150.88 72.8423 127.73 72.8355 104.58C72.8332 96.5194 72.6641 96.35 64.8237 96.3259C56.9961 96.3018 49.1678 96.2501 41.341 96.3281C37.687 96.3645 34.969 95.3196 34.8965 91.1904C34.8208 86.883 37.4391 85.5732 41.4096 85.5828C66.8909 85.6447 92.3726 85.6438 117.854 85.5782C121.698 85.5683 124.018 87.048 124.045 90.9965C124.072 95.0184 121.663 96.3702 117.849 96.3515C108.027 96.3032 98.2039 96.4539 87.9947 96.6825Z" fill="#202020"/>
<path d="M447.061 115.766C462.828 111.066 478.276 111.398 493.693 115.455C498.744 116.784 501.904 120.285 503.441 125.296C504.206 127.789 505.112 130.652 502.056 131.763C499.21 132.798 494.911 133.864 493.344 130.694C489.993 123.916 484.026 123.069 477.905 122.483C470.755 121.799 463.592 122.343 456.586 124.115C448.924 126.054 445.483 129.909 445.291 137.857C444.992 150.181 445.174 162.516 445.048 174.845C444.998 179.755 443.184 181.441 438.876 181.217C435.915 181.062 433.951 179.621 433.958 176.676C433.994 162.031 433.129 147.376 434.399 132.744C435.102 124.641 439.464 119.231 447.061 115.766Z" fill="#202020"/>
<path d="M225.136 180.436C212.555 171.065 200.285 161.93 188.126 152.647C181.618 147.679 181.837 141.807 188.587 137.388C199.578 130.193 210.639 123.105 221.65 115.941C223.933 114.455 226.262 113.424 229.099 113.635C231.342 113.802 233.512 113.855 234.314 116.481C235.101 119.056 233.582 120.532 231.671 121.804C222.535 127.884 213.402 133.969 204.269 140.054C196.42 145.283 196.391 145.321 204.093 151.188C212.823 157.836 221.638 164.374 230.359 171.033C232.851 172.936 237.185 174.301 235.204 178.513C233.212 182.749 229.058 181.304 225.136 180.436Z" fill="#202020"/>
<path d="M178.261 153C178.26 160.485 178.276 167.471 178.253 174.456C178.24 178.173 177.156 181.11 172.733 181.198C168.039 181.29 166.829 178.273 166.826 174.322C166.808 151.203 166.801 128.085 166.805 104.966C166.806 101.084 167.757 97.9603 172.579 98.0305C177.355 98.1 178.265 101.212 178.264 105.099C178.26 120.899 178.261 136.7 178.261 153Z" fill="#202020"/>
<path d="M138.902 167.944C138.9 153.288 138.867 139.122 138.917 124.957C138.929 121.485 139.326 118.048 143.948 117.765C147.681 117.536 150.232 119.043 150.246 123.081C150.307 140.746 150.295 158.411 150.238 176.076C150.227 179.526 148.211 181.109 144.812 181.245C141.363 181.382 139.375 179.811 139.078 176.426C138.847 173.778 138.949 171.1 138.902 167.944Z" fill="#202020"/>
<path d="M145.777 109.125C140.409 108.707 138.427 106.606 139.057 102.492C139.621 98.8087 142.551 97.076 146.457 98.1009C148.829 98.7235 150.079 100.241 150.249 102.691C150.466 105.829 149.631 108.273 145.777 109.125Z" fill="#202020"/>
<path d="M611 63L554 39L613 85L611 63Z" fill="url(#paint0_linear_104_271)"/>
<path d="M641.5 85L643 63L700 39L641.5 85Z" fill="url(#paint1_linear_104_271)"/>
<path d="M616 100L626 112.5V69.5L612.5 63.5L616 100Z" fill="url(#paint2_linear_104_271)"/>
<path d="M638 100L627.5 112.5V69.5L641.5 63.5L638 100Z" fill="url(#paint3_linear_104_271)"/>
<defs>
<linearGradient id="paint0_linear_104_271" x1="627" y1="50.5" x2="627" y2="112.5" gradientUnits="userSpaceOnUse">
<stop stop-color="#E00B07"/>
<stop offset="1" stop-color="#FD0100"/>
</linearGradient>
<linearGradient id="paint1_linear_104_271" x1="627" y1="50.5" x2="627" y2="112.5" gradientUnits="userSpaceOnUse">
<stop stop-color="#E00B07"/>
<stop offset="1" stop-color="#FD0100"/>
</linearGradient>
<linearGradient id="paint2_linear_104_271" x1="627" y1="50.5" x2="627" y2="112.5" gradientUnits="userSpaceOnUse">
<stop stop-color="#E00B07"/>
<stop offset="1" stop-color="#FD0100"/>
</linearGradient>
<linearGradient id="paint3_linear_104_271" x1="627" y1="50.5" x2="627" y2="112.5" gradientUnits="userSpaceOnUse">
<stop stop-color="#E00B07"/>
<stop offset="1" stop-color="#FD0100"/>
</linearGradient>
</defs>
</svg>
